<svg width="320" height="320" viewBox="0 0 320 320" fill="none" xmlns="http://www.w3.org/2000/svg">
<path d="M267 42H193.95L160.5 75.45L127.05 42H54V115.05L87.45 148.5L54 181.95V255H127.05L160.5 221.55L193.95 255H267V181.95L233.55 148.5L267 115.05V42ZM260 112.15L223.65 148.5L260 184.85V248H196.85L160.5 211.65L124.15 248H61V184.85L97.35 148.5L61 112.15V49H124.15L160.5 85.35L196.85 49H260V112.15Z" fill="#221C46"/>
<path d="M214.5 271H114.5V278H214.5V271Z" fill="#221C46"/>
<path d="M194.66 93.7404L189.53 113.02L174.69 119.11H170.15C174.99 116.93 178.37 112.08 178.37 106.44C178.37 98.7704 172.13 92.5404 164.47 92.5404C156.81 92.5404 150.57 98.7804 150.57 106.44C150.57 112.08 153.95 116.94 158.79 119.11H156.42L140.15 112.98L119.88 98.9504L110.25 112.73L146.03 138.41L149.15 165.56L129.64 190.26H94.9697V222.66L108.48 209.15H138.11L165.26 182L188.65 192.2L207.99 226.74L230.89 203.85L215.88 203.67L202.07 176.55L175.51 162.31L178.9 139.15L203.2 126.74L209.02 100.73H217.4V75.1904H198.23V93.7304H194.66V93.7404ZM164.47 99.5304C168.28 99.5304 171.37 102.63 171.37 106.43C171.37 110.23 168.27 113.33 164.47 113.33C160.67 113.33 157.57 110.23 157.57 106.43C157.57 102.63 160.67 99.5304 164.47 99.5304ZM135.21 202.14H105.58L101.97 205.75V197.25H133.03L150.28 175.41V175.46L158.36 178.98L135.21 202.13V202.14ZM196.83 181.68L211.56 210.61L214.18 210.64L209.57 215.25L193.59 186.72L156.77 170.66L156.43 167.73H170.81L196.82 181.68H196.83ZM197.09 122L172.5 134.56L168.67 160.73H155.63L152.62 134.53L119.94 111.07L121.62 108.67L136.87 119.22L155.14 126.1H176.07L195.41 118.17L200.05 100.73H201.85L197.09 122ZM205.23 82.2004H210.4V93.7404H205.23V82.2004Z" fill="#221C46"/>
</svg>
